<mxfile host="app.diagrams.net" modified="2022-11-11T15:51:40.448Z" agent="5.0 (Windows NT 10.0; Win64; x64) AppleWebKit/537.36 (KHTML, like Gecko) Chrome/107.0.0.0 Safari/537.36" etag="K_h7xsBVePCwXiCW2Sa-" version="20.5.3" type="github">
  <diagram id="mPNgLtXhNlg8bAYRKy5G" name="第 1 页">
    <mxGraphModel dx="1663" dy="257" grid="1" gridSize="10" guides="1" tooltips="1" connect="1" arrows="1" fold="1" page="1" pageScale="1" pageWidth="1169" pageHeight="827" math="0" shadow="0">
      <root>
        <mxCell id="0" />
        <mxCell id="1" parent="0" />
        <mxCell id="pftuyRFk976TqlF8-hqj-2" value="" style="rounded=0;whiteSpace=wrap;html=1;" parent="1" vertex="1">
          <mxGeometry x="-1030" y="70" width="200" height="460" as="geometry" />
        </mxCell>
        <mxCell id="tsSptXDLZasF8hUtU1I0-1" value="MUX_PC" style="rounded=0;whiteSpace=wrap;html=1;" vertex="1" parent="1">
          <mxGeometry x="-940" y="140" width="50" height="130" as="geometry" />
        </mxCell>
        <mxCell id="tsSptXDLZasF8hUtU1I0-3" value="" style="edgeStyle=none;orthogonalLoop=1;jettySize=auto;html=1;rounded=0;" edge="1" parent="1">
          <mxGeometry width="80" relative="1" as="geometry">
            <mxPoint x="-960" y="160" as="sourcePoint" />
            <mxPoint x="-940" y="160" as="targetPoint" />
            <Array as="points" />
          </mxGeometry>
        </mxCell>
        <mxCell id="tsSptXDLZasF8hUtU1I0-4" value="res_pc+4" style="text;html=1;resizable=0;autosize=1;align=center;verticalAlign=middle;points=[];fillColor=none;strokeColor=none;rounded=0;" vertex="1" parent="1">
          <mxGeometry x="-1020" y="140" width="70" height="30" as="geometry" />
        </mxCell>
        <mxCell id="tsSptXDLZasF8hUtU1I0-5" value="" style="edgeStyle=none;orthogonalLoop=1;jettySize=auto;html=1;rounded=0;" edge="1" parent="1">
          <mxGeometry width="80" relative="1" as="geometry">
            <mxPoint x="-960" y="180" as="sourcePoint" />
            <mxPoint x="-940" y="180" as="targetPoint" />
            <Array as="points" />
          </mxGeometry>
        </mxCell>
        <mxCell id="tsSptXDLZasF8hUtU1I0-6" value="" style="edgeStyle=none;orthogonalLoop=1;jettySize=auto;html=1;rounded=0;" edge="1" parent="1">
          <mxGeometry width="80" relative="1" as="geometry">
            <mxPoint x="-960" y="200" as="sourcePoint" />
            <mxPoint x="-940" y="200" as="targetPoint" />
            <Array as="points" />
          </mxGeometry>
        </mxCell>
        <mxCell id="tsSptXDLZasF8hUtU1I0-7" value="" style="edgeStyle=none;orthogonalLoop=1;jettySize=auto;html=1;rounded=0;" edge="1" parent="1">
          <mxGeometry width="80" relative="1" as="geometry">
            <mxPoint x="-960" y="220" as="sourcePoint" />
            <mxPoint x="-940" y="220" as="targetPoint" />
            <Array as="points" />
          </mxGeometry>
        </mxCell>
        <mxCell id="tsSptXDLZasF8hUtU1I0-8" value="" style="edgeStyle=none;orthogonalLoop=1;jettySize=auto;html=1;rounded=0;" edge="1" parent="1">
          <mxGeometry width="80" relative="1" as="geometry">
            <mxPoint x="-960" y="240" as="sourcePoint" />
            <mxPoint x="-940" y="240" as="targetPoint" />
            <Array as="points" />
          </mxGeometry>
        </mxCell>
        <mxCell id="tsSptXDLZasF8hUtU1I0-9" value="&lt;font style=&quot;font-size: 11px;&quot;&gt;ifidNpc[31:28]||ifidIr[instr_index]||00&lt;/font&gt;" style="text;html=1;resizable=0;autosize=1;align=center;verticalAlign=middle;points=[];fillColor=none;strokeColor=none;rounded=0;" vertex="1" parent="1">
          <mxGeometry x="-1160" y="160" width="210" height="30" as="geometry" />
        </mxCell>
        <mxCell id="tsSptXDLZasF8hUtU1I0-10" value="ifidNpc+sext(ifidIr[offset]&amp;lt;&amp;lt;2)" style="text;html=1;resizable=0;autosize=1;align=center;verticalAlign=middle;points=[];fillColor=none;strokeColor=none;rounded=0;" vertex="1" parent="1">
          <mxGeometry x="-1130" y="180" width="180" height="30" as="geometry" />
        </mxCell>
        <mxCell id="tsSptXDLZasF8hUtU1I0-11" value="Rs" style="text;html=1;resizable=0;autosize=1;align=center;verticalAlign=middle;points=[];fillColor=none;strokeColor=none;rounded=0;" vertex="1" parent="1">
          <mxGeometry x="-990" y="200" width="40" height="30" as="geometry" />
        </mxCell>
        <mxCell id="tsSptXDLZasF8hUtU1I0-12" value="exc_addr" style="text;html=1;resizable=0;autosize=1;align=center;verticalAlign=middle;points=[];fillColor=none;strokeColor=none;rounded=0;" vertex="1" parent="1">
          <mxGeometry x="-1020" y="220" width="70" height="30" as="geometry" />
        </mxCell>
        <mxCell id="tsSptXDLZasF8hUtU1I0-13" value="" style="edgeStyle=none;orthogonalLoop=1;jettySize=auto;html=1;rounded=0;" edge="1" parent="1">
          <mxGeometry width="80" relative="1" as="geometry">
            <mxPoint x="-890" y="204.8" as="sourcePoint" />
            <mxPoint x="-870" y="204.8" as="targetPoint" />
            <Array as="points" />
          </mxGeometry>
        </mxCell>
        <mxCell id="tsSptXDLZasF8hUtU1I0-14" value="res_mux_pc" style="text;html=1;resizable=0;autosize=1;align=center;verticalAlign=middle;points=[];fillColor=none;strokeColor=none;rounded=0;" vertex="1" parent="1">
          <mxGeometry x="-880" y="190" width="90" height="30" as="geometry" />
        </mxCell>
        <mxCell id="tsSptXDLZasF8hUtU1I0-15" value="PC" style="rounded=0;whiteSpace=wrap;html=1;fontSize=11;" vertex="1" parent="1">
          <mxGeometry x="-950" y="340" width="60" height="50" as="geometry" />
        </mxCell>
        <mxCell id="tsSptXDLZasF8hUtU1I0-16" value="" style="edgeStyle=none;orthogonalLoop=1;jettySize=auto;html=1;rounded=0;" edge="1" parent="1">
          <mxGeometry width="80" relative="1" as="geometry">
            <mxPoint x="-970" y="364.76" as="sourcePoint" />
            <mxPoint x="-950" y="364.76" as="targetPoint" />
            <Array as="points" />
          </mxGeometry>
        </mxCell>
        <mxCell id="tsSptXDLZasF8hUtU1I0-17" value="res_mux_pc" style="text;html=1;resizable=0;autosize=1;align=center;verticalAlign=middle;points=[];fillColor=none;strokeColor=none;rounded=0;" vertex="1" parent="1">
          <mxGeometry x="-1040" y="340" width="90" height="30" as="geometry" />
        </mxCell>
        <mxCell id="tsSptXDLZasF8hUtU1I0-18" value="pc_out" style="text;html=1;resizable=0;autosize=1;align=center;verticalAlign=middle;points=[];fillColor=none;strokeColor=none;rounded=0;" vertex="1" parent="1">
          <mxGeometry x="-890" y="340" width="60" height="30" as="geometry" />
        </mxCell>
        <mxCell id="tsSptXDLZasF8hUtU1I0-19" value="" style="edgeStyle=none;orthogonalLoop=1;jettySize=auto;html=1;rounded=0;" edge="1" parent="1">
          <mxGeometry width="80" relative="1" as="geometry">
            <mxPoint x="-890" y="364.76" as="sourcePoint" />
            <mxPoint x="-870" y="364.76" as="targetPoint" />
            <Array as="points" />
          </mxGeometry>
        </mxCell>
        <mxCell id="tsSptXDLZasF8hUtU1I0-20" value="IMEM" style="rounded=0;whiteSpace=wrap;html=1;fontSize=11;" vertex="1" parent="1">
          <mxGeometry x="-965" y="420" width="70" height="50" as="geometry" />
        </mxCell>
        <mxCell id="tsSptXDLZasF8hUtU1I0-21" value="" style="edgeStyle=none;orthogonalLoop=1;jettySize=auto;html=1;rounded=0;" edge="1" parent="1">
          <mxGeometry width="80" relative="1" as="geometry">
            <mxPoint x="-985" y="444.76" as="sourcePoint" />
            <mxPoint x="-965" y="444.76" as="targetPoint" />
            <Array as="points" />
          </mxGeometry>
        </mxCell>
        <mxCell id="tsSptXDLZasF8hUtU1I0-22" value="pc_out" style="text;html=1;resizable=0;autosize=1;align=center;verticalAlign=middle;points=[];fillColor=none;strokeColor=none;rounded=0;" vertex="1" parent="1">
          <mxGeometry x="-1030" y="420" width="60" height="30" as="geometry" />
        </mxCell>
        <mxCell id="tsSptXDLZasF8hUtU1I0-23" value="" style="edgeStyle=none;orthogonalLoop=1;jettySize=auto;html=1;rounded=0;" edge="1" parent="1">
          <mxGeometry width="80" relative="1" as="geometry">
            <mxPoint x="-895" y="444.8" as="sourcePoint" />
            <mxPoint x="-875" y="444.8" as="targetPoint" />
            <Array as="points" />
          </mxGeometry>
        </mxCell>
        <mxCell id="tsSptXDLZasF8hUtU1I0-24" value="instr" style="text;html=1;resizable=0;autosize=1;align=center;verticalAlign=middle;points=[];fillColor=none;strokeColor=none;rounded=0;" vertex="1" parent="1">
          <mxGeometry x="-890" y="420" width="50" height="30" as="geometry" />
        </mxCell>
        <mxCell id="tsSptXDLZasF8hUtU1I0-25" value="&lt;b&gt;&lt;font style=&quot;font-size: 13px;&quot;&gt;IF&lt;/font&gt;&lt;/b&gt;" style="text;html=1;resizable=0;autosize=1;align=center;verticalAlign=middle;points=[];fillColor=none;strokeColor=none;rounded=0;" vertex="1" parent="1">
          <mxGeometry x="-1035" y="40" width="40" height="30" as="geometry" />
        </mxCell>
        <mxCell id="tsSptXDLZasF8hUtU1I0-26" value="" style="rounded=0;whiteSpace=wrap;html=1;fontSize=13;" vertex="1" parent="1">
          <mxGeometry x="-780" y="70" width="90" height="460" as="geometry" />
        </mxCell>
        <mxCell id="tsSptXDLZasF8hUtU1I0-27" value="&lt;b&gt;&lt;font style=&quot;font-size: 13px;&quot;&gt;IF/ID&lt;/font&gt;&lt;/b&gt;" style="text;html=1;resizable=0;autosize=1;align=center;verticalAlign=middle;points=[];fillColor=none;strokeColor=none;rounded=0;" vertex="1" parent="1">
          <mxGeometry x="-780" y="40" width="50" height="30" as="geometry" />
        </mxCell>
        <mxCell id="tsSptXDLZasF8hUtU1I0-28" value="NPC" style="rounded=0;whiteSpace=wrap;html=1;fontSize=13;" vertex="1" parent="1">
          <mxGeometry x="-760" y="160" width="50" height="55" as="geometry" />
        </mxCell>
      </root>
    </mxGraphModel>
  </diagram>
</mxfile>
